<?xml version="1.0" encoding="UTF-8"?>
<svg version="1.1" xmlns="http://www.w3.org/2000/svg" width="512" height="512">
<path d="M0 0 C0.9283692 -0.08952259 1.85673839 -0.17904519 2.81323999 -0.27128059 C5.9429228 -0.56587044 9.0740431 -0.83682157 12.20617676 -1.10403442 C13.30355797 -1.20073949 14.40093918 -1.29744455 15.53157437 -1.39708006 C45.43742091 -4.0124225 75.39465515 -5.58167181 105.39213437 -6.61184639 C107.54608592 -6.68635354 109.69993137 -6.76349357 111.85377741 -6.84098482 C177.66130826 -9.17559071 240.7449325 -11.01249945 291.92227173 36.62374878 C300.46947557 44.78410101 308.31512929 53.52423184 315.98937988 62.50094604 C316.6180962 63.23269704 317.24681252 63.96444803 317.89458084 64.7183733 C363.16431402 117.54225039 363.16431402 117.54225039 363.18330765 132.66612053 C363.18714879 133.81156393 363.19098994 134.95700733 363.19494748 136.13716114 C363.194081 137.40124305 363.19321452 138.66532497 363.19232178 139.9677124 C363.19490488 141.31967349 363.19791788 142.67163381 363.20132518 144.02359307 C363.20940479 147.74688199 363.21118528 151.47015165 363.21192265 155.19344831 C363.2137715 159.2058039 363.22131794 163.21814946 363.22805786 167.23049927 C363.24164799 176.00723555 363.24766681 184.78396728 363.25206852 193.56071234 C363.25482949 199.03850368 363.25906655 204.51629326 363.26357269 209.9940834 C363.27576567 225.15387041 363.2860653 240.313656 363.28944778 255.4734478 C363.28966735 256.44396112 363.28988692 257.41447444 363.29011314 258.41439725 C363.29033141 259.38725859 363.29054969 260.36011993 363.29077458 261.36246192 C363.29121805 263.33391627 363.29166462 265.30537061 363.29211426 267.27682495 C363.29233569 268.25473854 363.29255712 269.23265213 363.29278526 270.24019946 C363.29673486 286.092575 363.3141937 301.94490462 363.33747378 317.79726242 C363.36116993 334.06391188 363.37364882 350.33053827 363.3748157 366.59720528 C363.37573338 375.73390524 363.38150908 384.87054535 363.39963531 394.00722885 C363.41501281 401.785898 363.42017067 409.56448881 363.41189721 417.34317027 C363.40798249 421.313392 363.40896019 425.28345585 363.42295456 429.25365829 C363.43564431 432.88688985 363.43453971 436.51984409 363.42236385 440.15307499 C363.41946579 442.09280902 363.4313798 444.03254762 363.44378591 445.97224414 C363.43390114 447.69823249 363.43390114 447.69823249 363.42381668 449.45908928 C363.42441377 450.45195061 363.42501086 451.44481193 363.42562604 452.46775997 C362.85345235 456.63289975 360.98266256 459.25766337 358.05187988 462.18844604 C356.06503296 462.42895508 356.06503296 462.42895508 353.60217285 462.41549683 C352.68136932 462.41534576 351.7605658 462.4151947 350.81185913 462.41503906 C349.81598785 462.40471649 348.82011658 462.39439392 347.79406738 462.38375854 C346.77587921 462.38092865 345.75769104 462.37809875 344.70864868 462.37518311 C341.44794088 462.36396375 338.18750504 462.338856 334.92687988 462.31344604 C332.71985259 462.30341851 330.51282101 462.29429227 328.30578613 462.28610229 C322.88772416 462.26401872 317.46982145 462.23052399 312.05187988 462.18844604 C312.06235352 463.46485962 312.07282715 464.74127319 312.08361816 466.05636597 C312.11986269 470.79933866 312.14279665 475.54229913 312.16174316 480.28536987 C312.17179057 482.33682312 312.1854308 484.38826208 312.20275879 486.43966675 C312.22706234 489.39111867 312.2383757 492.34238094 312.24719238 495.29391479 C312.25751495 496.20868088 312.26783752 497.12344696 312.2784729 498.06593323 C312.27939839 503.33792234 312.10849279 507.42031418 308.85902065 511.79399449 C306.23304559 513.82028656 304.2552438 513.56571404 300.96233463 513.56876278 C299.68042211 513.57720272 298.39850958 513.58564266 297.07775122 513.59433836 C295.64693087 513.58854253 294.21611165 513.58246147 292.78529358 513.5761261 C291.27174942 513.58029624 289.75820838 513.585772 288.24467319 513.59244591 C284.07473426 513.60696131 279.90499195 513.60263691 275.73504198 513.5952791 C271.24211456 513.59056472 266.74923075 513.60304189 262.25631714 513.61329651 C253.45014249 513.63052394 244.64403908 513.63131637 235.83785195 513.6260836 C228.68262917 513.62204799 221.5274275 513.6234782 214.37220573 513.62883186 C213.35520952 513.62958029 212.33821331 513.63032871 211.29039903 513.63109981 C209.22460755 513.63263123 207.15881607 513.63416958 205.0930246 513.63571478 C185.70479133 513.64945409 166.31659836 513.64399209 146.928366 513.63252956 C129.1773705 513.62259566 111.42647922 513.63553805 93.6754998 513.65946376 C75.4640948 513.68382577 57.25273839 513.69346977 39.0413174 513.68681103 C28.81085012 513.68331235 18.58046301 513.68559349 8.35000801 513.70306206 C-0.35903032 513.71774787 -9.06793203 513.71846709 -17.77696758 513.70099115 C-22.2230296 513.69244878 -26.66884718 513.69041002 -31.11489677 513.7056427 C-35.18176003 513.71940409 -39.24816746 513.71483799 -43.31500376 513.69540346 C-44.78940212 513.69161667 -46.26383625 513.69464185 -47.73820298 513.70501512 C-49.73634431 513.71807828 -51.73460802 513.70428384 -53.73273373 513.6890173 C-54.84444752 513.68890996 -55.95616131 513.68880262 -57.10156339 513.68869203 C-60.62615993 513.06928921 -61.77878902 511.98261305 -63.94812012 509.18844604 C-65.14621465 505.59416243 -65.08721277 502.3272913 -65.07675457 498.58680916 C-65.07850761 497.80144022 -65.08026064 497.01607128 -65.0820668 496.20690328 C-65.08674956 493.55328281 -65.08425548 490.89971658 -65.08183289 488.24609375 C-65.08369971 486.33316022 -65.0859999 484.42022707 -65.08869821 482.50729454 C-65.09483847 477.23339107 -65.09468001 471.95950341 -65.09350383 466.68559718 C-65.09330039 461.00451711 -65.0988132 455.32344219 -65.1035614 449.6423645 C-65.11188066 438.50572724 -65.11461682 427.36909526 -65.11517378 416.23245515 C-65.11564833 407.18365458 -65.11770001 398.13485577 -65.1208744 389.08605576 C-65.12824988 367.62632038 -65.13439885 346.16658674 -65.13387585 324.70685005 C-65.13386027 324.02022703 -65.13384469 323.33360401 -65.13382864 322.62617423 C-65.13374553 319.14590766 -65.13364649 315.66564109 -65.13354393 312.18537451 C-65.13352399 311.49415351 -65.13350404 310.80293252 -65.13348349 310.09076543 C-65.13344305 308.69294757 -65.13340126 307.29512971 -65.1333581 305.89731186 C-65.13274524 284.14587985 -65.14025307 262.39446343 -65.15393066 240.64303589 C-65.169283 216.21807775 -65.17788473 191.79313245 -65.17696744 167.36816871 C-65.17663492 154.43087486 -65.179406 141.49359858 -65.19014549 128.55630875 C-65.19922947 117.54240809 -65.20144311 106.52853298 -65.19463607 95.51463021 C-65.19136022 89.8918322 -65.19135237 84.26908324 -65.19998932 78.64628983 C-65.20780842 73.50317565 -65.20647023 68.3601498 -65.19770519 63.2170379 C-65.19616002 61.35231301 -65.19802426 59.48758168 -65.20356526 57.62286438 C-65.21057974 55.09572306 -65.20536777 52.56889555 -65.19700909 50.04176521 C-65.20197727 49.31134154 -65.20694545 48.58091787 -65.21206418 47.82836014 C-65.18414117 43.85766173 -64.87452469 40.69652202 -62.94812012 37.18844604 C-59.76915399 35.06913529 -59.01837479 34.94148575 -55.3848877 34.96139526 C-54.4641597 34.96154633 -53.5434317 34.96169739 -52.59480286 34.96185303 C-51.10873787 34.97733688 -51.10873787 34.97733688 -49.59265137 34.99313354 C-48.06749153 34.99737839 -48.06749153 34.99737839 -46.51152039 35.00170898 C-43.26110104 35.01291222 -40.01095631 35.03801718 -36.76062012 35.06344604 C-34.55815014 35.07347565 -32.35567584 35.08260154 -30.15319824 35.09078979 C-24.75141169 35.11285199 -19.34978552 35.14633096 -13.94812012 35.18844604 C-13.96383057 34.04629639 -13.96383057 34.04629639 -13.9798584 32.881073 C-14.02151031 29.42106444 -14.04747571 25.96110873 -14.07312012 22.50094604 C-14.08987793 21.30276245 -14.10663574 20.10457886 -14.12390137 18.87008667 C-14.13356934 17.13468628 -14.13356934 17.13468628 -14.14343262 15.36422729 C-14.15914307 13.7696167 -14.15914307 13.7696167 -14.1751709 12.14279175 C-13.88321634 8.34392923 -13.07314277 5.54147924 -10.61833143 2.58914649 C-7.65821855 0.1066873 -3.72270129 0.3208509 0 0 Z M4.05187988 19.18844604 C4.05187988 159.43844604 4.05187988 299.68844604 4.05187988 444.18844604 C116.58187988 444.18844604 229.11187988 444.18844604 345.05187988 444.18844604 C345.05187988 343.20844604 345.05187988 242.22844604 345.05187988 138.18844604 C307.43187988 137.85844604 269.81187988 137.52844604 231.05187988 137.18844604 C226.77197844 132.9085446 225.93862232 131.29802552 225.8936615 125.61369324 C225.88388747 124.6775459 225.87411345 123.74139856 225.86404324 122.77688313 C225.85827298 121.74778922 225.85250273 120.71869532 225.84655762 119.65841675 C225.8365249 118.55780253 225.82649218 117.45718832 225.81615543 116.32322216 C225.78472384 112.75357876 225.75997998 109.18392427 225.73547363 105.61422729 C225.7170745 103.41317376 225.69823805 101.21212385 225.67895508 99.01107788 C225.61045692 90.8410767 225.5504365 82.67100623 225.48937988 74.50094604 C225.34500488 56.24782104 225.20062988 37.99469604 225.05187988 19.18844604 C152.12187988 19.18844604 79.19187988 19.18844604 4.05187988 19.18844604 Z M243.05187988 32.18844604 C243.05187988 61.22844604 243.05187988 90.26844604 243.05187988 120.18844604 C272.09187988 120.18844604 301.13187988 120.18844604 331.05187988 120.18844604 C326.27763695 114.58064636 326.27763695 114.58064636 321.26200867 109.27159119 C320.57365936 108.58042206 319.88531006 107.88925293 319.17610168 107.17713928 C318.44183456 106.44489639 317.70756744 105.7126535 316.9510498 104.95822144 C316.16174072 104.16716003 315.37243164 103.37609863 314.5592041 102.56106567 C311.96941595 99.9669028 309.37601919 97.37638306 306.78234863 94.78610229 C304.97713338 92.98021315 303.17206658 91.1741756 301.36714172 89.36799622 C297.59546457 85.59484837 293.82204146 81.82345876 290.04724121 78.05343628 C285.67929716 73.69095681 281.3149991 69.32485462 276.95253104 64.9568997 C272.75057623 60.74987144 268.54582754 56.54564433 264.33986855 52.34261894 C262.55086058 50.55428007 260.76260068 48.76519255 258.97508812 46.97535896 C256.48770781 44.48545594 253.99717387 41.99875226 251.5057373 39.51290894 C250.76134903 38.76649643 250.01696075 38.02008392 249.25001526 37.25105286 C248.57576508 36.5796225 247.90151489 35.90819214 247.20683289 35.21641541 C246.61822574 34.62818528 246.02961859 34.03995516 245.42317486 33.43389988 C244.237247 32.07639195 244.237247 32.07639195 243.05187988 32.18844604 Z M-46.94812012 53.18844604 C-46.94812012 199.04844604 -46.94812012 344.90844604 -46.94812012 495.18844604 C65.58187988 495.18844604 178.11187988 495.18844604 294.05187988 495.18844604 C294.05187988 484.29844604 294.05187988 473.40844604 294.05187988 462.18844604 C290.27728333 462.1825798 286.50268677 462.17671356 282.6137085 462.17066956 C248.02146481 462.11552533 213.42927646 462.04558772 178.83709557 461.95945976 C174.30582604 461.94819123 169.77455619 461.93705284 165.24328613 461.92599487 C163.8901115 461.92268935 163.8901115 461.92268935 162.50960001 461.91931704 C147.89149494 461.88391858 133.27338993 461.85906885 118.65525785 461.83809903 C103.66219962 461.81635725 88.66919715 461.78332235 73.67618632 461.73974448 C64.42035398 461.71319972 55.16459114 461.69552518 45.90872261 461.6891 C39.56663974 461.68385474 33.22464443 461.66766689 26.88260844 461.64278039 C23.2203883 461.6287357 19.55832498 461.61960557 15.8960762 461.62343788 C11.92992796 461.62746248 7.96408334 461.60849069 3.99798584 461.58717346 C2.25286331 461.59444483 2.25286331 461.59444483 0.47248578 461.60186309 C-0.58746388 461.59240655 -1.64741354 461.58295 -2.73948288 461.5732069 C-3.65536832 461.5713083 -4.57125375 461.5694097 -5.51489329 461.56745356 C-8.4806544 461.10549673 -9.82627386 460.29684541 -11.94812012 458.18844604 C-13.38072504 454.77700248 -13.07880551 451.08616041 -13.08678532 447.43368912 C-13.08962753 446.75203589 -13.09246975 446.07038267 -13.0953981 445.36807328 C-13.10375076 443.07334247 -13.10501376 440.7786621 -13.1063385 438.48391724 C-13.11090346 436.82641885 -13.11590339 435.16892161 -13.12130207 433.51142573 C-13.13490008 428.94843455 -13.14230635 424.38545083 -13.14872873 419.82244468 C-13.15672536 414.90494138 -13.17042567 409.98745366 -13.18344116 405.06996155 C-13.20521437 396.54729957 -13.22335578 388.02463602 -13.2390461 379.50196075 C-13.26173703 367.1795291 -13.28988094 354.85711467 -13.31936537 342.53469762 C-13.36705081 322.54347423 -13.41031242 302.5522438 -13.45080566 282.56100464 C-13.49015575 263.13879854 -13.53158081 243.71659871 -13.57580566 224.29440308 C-13.57852994 223.09766874 -13.58125421 221.90093441 -13.58406103 220.6679354 C-13.59774043 214.66440529 -13.61146072 208.66087527 -13.62520134 202.65734529 C-13.73918107 152.83439178 -13.84571508 103.01142458 -13.94812012 53.18844604 C-24.83812012 53.18844604 -35.72812012 53.18844604 -46.94812012 53.18844604 Z " fill="#000000" transform="translate(106.9481201171875,-1.188446044921875)"/>
<path d="M0 0 C0.84770877 -0.00297112 1.69541754 -0.00594224 2.56881446 -0.0090034 C5.41996559 -0.01770088 8.27107479 -0.01919953 11.12223816 -0.02069092 C13.1621815 -0.02531834 15.20212397 -0.03034289 17.24206543 -0.03573608 C22.7917001 -0.04886913 28.34132268 -0.05530677 33.89097047 -0.05974674 C37.35664359 -0.06267591 40.82231339 -0.06678041 44.28798485 -0.07125092 C55.12688711 -0.08492801 65.9657818 -0.09459372 76.80469209 -0.09845281 C89.32483185 -0.10293472 101.8448625 -0.12048799 114.36496907 -0.1494534 C124.0372324 -0.17105508 133.70946499 -0.18115627 143.38175219 -0.18249393 C149.16110753 -0.18354301 154.94036034 -0.18947278 160.71969032 -0.20731354 C166.15580173 -0.22376807 171.59173324 -0.22596241 177.02786064 -0.21717453 C179.02330634 -0.21640276 181.0187616 -0.22076521 183.01418304 -0.23063278 C185.7381048 -0.2433131 188.46138562 -0.23749678 191.18530273 -0.22705078 C192.36999349 -0.23913539 192.36999349 -0.23913539 193.57861739 -0.25146413 C198.37631635 -0.20842811 201.75824583 0.48283259 205.78312683 3.14044189 C207.39717776 6.77205649 208.04402179 8.99250409 207.15812683 12.89044189 C205.53067305 15.55354808 204.51248607 16.59547903 201.78312683 18.14044189 C198.87937199 18.43403549 196.19087314 18.55395338 193.28741455 18.53485107 C191.98901009 18.54398773 191.98901009 18.54398773 190.66437525 18.55330896 C187.75859532 18.56998227 184.85325152 18.56515698 181.94743347 18.56036377 C179.86630801 18.56770156 177.78518664 18.57628693 175.70407104 18.58602905 C170.0470919 18.60828365 164.39025824 18.61117378 158.73324132 18.60928154 C154.01386034 18.60916203 149.2945104 18.61771825 144.57513803 18.62605906 C133.44335617 18.64530713 122.3116493 18.64817173 111.17985535 18.64141846 C99.68834955 18.63477538 88.19716454 18.65764972 76.70572382 18.69473219 C66.84575516 18.72539782 56.98588987 18.73679265 47.12587446 18.73289537 C41.23416866 18.73082474 35.34271246 18.73635585 29.45105171 18.76078796 C23.9113935 18.78300075 18.37225803 18.78122263 12.83259773 18.76086044 C10.79803057 18.75744078 8.76342858 18.76258041 6.72890854 18.77684402 C3.95393216 18.79495833 1.18074397 18.78234608 -1.59417725 18.76190186 C-2.4017656 18.7744197 -3.20935395 18.78693755 -4.04141468 18.79983473 C-8.13359218 18.73507388 -9.98239849 18.32865076 -13.21648502 15.73270416 C-15.18079431 13.18719576 -15.88549519 12.21790521 -15.77937317 9.07794189 C-15.21687317 5.14044189 -15.21687317 5.14044189 -13.40437317 2.70294189 C-9.16363464 -0.32615705 -4.99644146 -0.00543554 0 0 Z " fill="#000000" transform="translate(211.2168731689453,314.85955810546875)"/>
<path d="M0 0 C1.28359052 -0.00445668 1.28359052 -0.00445668 2.59311217 -0.0090034 C5.4773423 -0.01771562 8.36153105 -0.01920077 11.24577332 -0.02069092 C13.30689585 -0.02531731 15.36801752 -0.03034173 17.42913818 -0.03573608 C23.04074643 -0.04887939 28.6523427 -0.05530881 34.26396394 -0.05974674 C37.76731354 -0.06267438 41.27065985 -0.06677859 44.7740078 -0.07125092 C55.72770765 -0.08493097 66.6814 -0.09459512 77.63510782 -0.09845281 C90.29336834 -0.10293486 102.95152096 -0.12048754 115.60974866 -0.1494534 C125.38473541 -0.17104754 135.15969174 -0.18115588 144.9347021 -0.18249393 C150.77719718 -0.18354359 156.61959089 -0.1894856 162.46206093 -0.20731354 C167.95725126 -0.22375499 173.4522636 -0.22596882 178.94746971 -0.21717453 C180.96591034 -0.21640205 182.98436039 -0.22077457 185.0027771 -0.23063278 C187.75556447 -0.2432906 190.50771558 -0.2375091 193.26049805 -0.22705078 C194.06166874 -0.23510719 194.86283944 -0.24316359 195.68828803 -0.25146413 C200.22687539 -0.21105995 203.26362632 0.23070616 206.82072449 3.14044189 C208.67941363 7.24504708 209.1670955 9.17424907 207.63322449 13.45294189 C205.82072449 16.14044189 205.82072449 16.14044189 202.82072449 18.14044189 C199.99652882 18.34078414 197.27030432 18.42299134 194.44526672 18.41459656 C193.58051818 18.41983324 192.71576963 18.42506992 191.82481658 18.43046528 C188.91601695 18.44551326 186.00739247 18.44617148 183.09855652 18.44683838 C181.01758017 18.45445661 178.93660665 18.46288352 176.8556366 18.47206116 C171.19449665 18.49404555 165.53341073 18.5028103 159.87223291 18.5078876 C156.33754869 18.51152637 152.80287872 18.5177639 149.26819992 18.52488899 C136.94309108 18.54939668 124.61802442 18.56243835 112.29289246 18.565979 C100.79403559 18.56961582 89.2954454 18.59951846 77.79667008 18.64138359 C67.93248485 18.67604178 58.06838818 18.69152667 48.20414245 18.69222504 C42.30905509 18.69301935 36.41423923 18.70182865 30.51921463 18.7302227 C24.97548438 18.75632678 19.43225222 18.75865128 13.88848877 18.74256706 C11.85230298 18.7407465 9.81608906 18.74749777 7.77996445 18.76338577 C5.00276463 18.78373748 2.22732543 18.77335913 -0.54985046 18.75517273 C-1.35812094 18.7683727 -2.16639141 18.78157266 -2.99915493 18.79517263 C-7.09363437 18.73381102 -8.94296628 18.3300636 -12.17930794 15.73312473 C-14.14302959 13.18742974 -14.84789115 12.21771647 -14.74177551 9.07794189 C-14.17927551 5.14044189 -14.17927551 5.14044189 -12.30427551 2.70294189 C-8.26509791 -0.26704163 -4.85607156 -0.00520843 0 0 Z " fill="#000000" transform="translate(210.1792755126953,263.85955810546875)"/>
<path d="M0 0 C0.8664574 -0.00709439 1.73291479 -0.01418877 2.62562847 -0.02149814 C5.52862104 -0.03909854 8.43027833 -0.02096301 11.33325195 -0.00291443 C13.41452647 -0.00805246 15.49579664 -0.01533285 17.57705688 -0.02459717 C23.22997224 -0.04313401 28.88241681 -0.03015793 34.53531265 -0.01050687 C40.44802665 0.00586194 46.3607104 -0.0029308 52.2734375 -0.00802612 C62.203283 -0.01254904 72.13294026 0.0033352 82.06274414 0.03126526 C93.54686285 0.06331793 105.030642 0.06330199 116.51478481 0.04605049 C127.55715129 0.03019287 138.59939314 0.03691408 149.64175415 0.0539875 C154.34342766 0.0608644 159.04500146 0.05981896 163.74667358 0.05244255 C169.2822186 0.04478776 174.81737667 0.05687983 180.35285568 0.08429146 C182.38579535 0.09118479 184.4187711 0.09126315 186.45170975 0.08407593 C189.22426211 0.07540256 191.9956145 0.0913014 194.76806641 0.11352539 C195.57497264 0.10528462 196.38187887 0.09704386 197.21323681 0.08855337 C200.94292926 0.1438353 203.16453326 0.49155625 206.36003113 2.48066807 C208.9802517 5.26079306 209.3840332 6.82118906 209.3840332 10.62818909 C208.27590853 13.66095136 207.44718221 15.8552296 204.79461575 17.78377056 C201.23504009 19.03067731 197.72841024 18.90652952 194.00221252 18.8888855 C193.14886021 18.89271105 192.2955079 18.89653659 191.41629642 18.90047807 C188.55204541 18.91081073 185.68799477 18.90681541 182.82373047 18.90284729 C180.77216404 18.90719361 178.72059924 18.91237648 176.66903687 18.91833496 C171.09265133 18.9317446 165.51633349 18.93230146 159.93993497 18.92977166 C155.2876655 18.92870332 150.6354098 18.93358179 145.98314327 18.93837708 C135.00958507 18.94947899 124.0360611 18.94990578 113.0625 18.94386292 C101.73466911 18.93782098 90.40696235 18.95013821 79.07915264 18.97143298 C69.35932101 18.9890344 59.63952895 18.99505266 49.91968197 18.99179524 C44.1118771 18.98997997 38.30416079 18.9926429 32.49637032 19.00650978 C27.03561448 19.0190598 21.57505254 19.01717079 16.11429977 19.00409889 C14.10876208 19.00172742 12.10321087 19.00448812 10.09768867 19.01272202 C7.36251158 19.0231429 4.6279907 19.01512636 1.89283752 19.00241089 C0.69896426 19.01347232 0.69896426 19.01347232 -0.51902765 19.02475721 C-6.32526425 18.9678682 -9.54827002 17.69588586 -13.6159668 13.62818909 C-14.4147897 6.66701809 -14.4147897 6.66701809 -11.61955261 3.03195286 C-7.76275454 -0.05463499 -4.73379417 -0.06943546 0 0 Z " fill="#000000" transform="translate(209.615966796875,212.37181091308594)"/>
<path d="M0 0 C1.30686977 -0.01064158 1.30686977 -0.01064158 2.64014095 -0.02149814 C5.55928449 -0.03909914 8.47710026 -0.02096273 11.39622498 -0.00291443 C13.48897407 -0.0080524 15.58171884 -0.01533275 17.67445374 -0.02459717 C23.35829181 -0.04313364 29.04166165 -0.03015861 34.72548032 -0.01050687 C40.6693587 0.00586007 46.61320697 -0.00293044 52.55709839 -0.00802612 C62.53821812 -0.0125489 72.51915056 0.00333519 82.50022888 0.03126526 C94.04685099 0.06332663 105.59313542 0.06329856 117.13978153 0.04605049 C128.23981632 0.03019902 139.33972706 0.03690954 150.43975639 0.0539875 C155.167376 0.06086786 159.89489648 0.05981545 164.62251472 0.05244255 C170.18678317 0.04479383 175.75066625 0.05685985 181.31486893 0.08429146 C183.35951658 0.09119086 185.40420013 0.0912567 187.44884682 0.08407593 C190.23488579 0.07541725 193.01972562 0.09127621 195.80566406 0.11352539 C196.61937409 0.10528462 197.43308411 0.09704386 198.27145201 0.08855337 C201.83792457 0.14131041 203.91801972 0.31281021 206.81410122 2.48066807 C208.82418148 5.31084067 209.26988452 7.15540468 209.33934021 10.62818909 C208.1706799 14.00431887 207.42928223 16.02548969 204.24878693 17.78419113 C200.45226609 18.88551937 196.83019966 18.90434886 192.91319275 18.88215637 C192.06715312 18.88527635 191.22111348 18.88839633 190.34943628 18.89161086 C187.51592183 18.89958496 184.68262187 18.89326948 181.84910583 18.88697815 C179.81709671 18.88968827 177.78508856 18.89324932 175.75308228 18.89759827 C170.23459913 18.906722 164.71619069 18.90317805 159.19770622 18.8968401 C153.42513196 18.89178005 147.65256414 18.89647156 141.87998962 18.89961243 C132.1856013 18.90325205 122.49124344 18.89845305 112.79685974 18.88893127 C101.58547922 18.87804675 90.37417144 18.88157232 79.16279268 18.89258409 C69.54060636 18.90165704 59.91844195 18.90294219 50.29625273 18.89770675 C44.54772976 18.8945871 38.79924099 18.89417758 33.05072021 18.90077972 C27.64661564 18.90655266 22.24260494 18.90255718 16.83851051 18.89099121 C14.85393746 18.88834436 12.86935653 18.88911015 10.88478661 18.89351654 C8.17824659 18.89897236 5.4720084 18.89213734 2.76548767 18.88215637 C1.97803618 18.88661782 1.19058469 18.89107926 0.37927103 18.8956759 C-4.70465575 18.85925066 -8.66748935 18.48389949 -12.47315979 14.94068909 C-14.19628008 11.58513905 -14.18274068 9.34801544 -13.66065979 5.62818909 C-9.7696281 0.38125987 -6.18398419 -0.09019572 0 0 Z " fill="#000000" transform="translate(209.66065979003906,161.37181091308594)"/>
<path d="M0 0 C0.84110166 -0.00226556 1.68220331 -0.00453111 2.5487929 -0.00686532 C5.37153684 -0.01320328 8.19423275 -0.01237609 11.01698303 -0.0115509 C13.03899193 -0.01454249 15.06100025 -0.01794502 17.08300781 -0.02172852 C22.57880221 -0.03057204 28.07458105 -0.03290676 33.57038188 -0.0335443 C38.1555436 -0.03449316 42.74070167 -0.03817114 47.32586199 -0.0417164 C58.14119848 -0.04986205 68.95652664 -0.0523005 79.77186584 -0.05158997 C90.93607374 -0.05098891 102.10023336 -0.061546 113.26442903 -0.07733363 C122.84412868 -0.09039884 132.42381253 -0.0957743 142.00352103 -0.09513456 C147.7274718 -0.0948793 153.45137966 -0.09774587 159.17532158 -0.10831261 C164.55724433 -0.11797661 169.93908301 -0.11808444 175.32100868 -0.11079597 C177.29752093 -0.10974807 179.27403836 -0.11212519 181.25054169 -0.11815643 C183.94618012 -0.1258501 186.64152627 -0.12124898 189.3371582 -0.11352539 C190.12140087 -0.11866895 190.90564353 -0.12381252 191.71365112 -0.12911195 C196.6808298 -0.09760726 200.46620713 0.43431492 204.48207092 3.44621277 C206.16053908 5.71214478 206.5313235 7.32324881 206.73207092 10.13371277 C205.7484308 13.5764532 204.67225253 16.05624314 201.73207092 18.13371277 C198.85629872 18.43296152 196.1960463 18.54689507 193.31864929 18.52812195 C192.44981719 18.53421305 191.5809851 18.54030416 190.68582475 18.54657984 C187.76312047 18.56328082 184.84084848 18.55842393 181.91810608 18.55363464 C179.82727605 18.56097089 177.73645008 18.56955582 175.64562988 18.57929993 C169.95760101 18.60157237 164.26971675 18.60444371 158.58165026 18.60255241 C153.83746623 18.60243297 149.09331312 18.61098662 144.34913766 18.61932993 C133.15840185 18.63858497 121.96774064 18.64144031 110.7769928 18.63468933 C99.22359244 18.62804792 87.6705113 18.6509123 76.1171757 18.68800306 C66.2062723 18.71866918 56.29547175 18.73006341 46.38452184 18.72616625 C40.46150253 18.72409541 34.53873149 18.72962956 28.61575699 18.75405884 C23.04574427 18.77627202 17.47625144 18.77449314 11.90623665 18.75413132 C9.86038245 18.75071156 7.81449363 18.75585167 5.76868629 18.7701149 C2.97833303 18.7882285 0.18975823 18.77561734 -2.60054016 18.75517273 C-3.81878229 18.7739495 -3.81878229 18.7739495 -5.06163538 18.7931056 C-9.10294882 18.7294993 -11.03709228 18.31184433 -14.27448463 15.81362152 C-16.26792908 13.13371277 -16.26792908 13.13371277 -16.83042908 9.63371277 C-16.1804284 5.58926412 -15.22787529 3.92921752 -12.26792908 1.13371277 C-8.24674017 -0.18187566 -4.18733914 -0.00824506 0 0 Z " fill="#000000" transform="translate(212.26792907714844,365.8662872314453)"/>
<path d="M0 0 C1.06152786 -0.00960754 2.12305573 -0.01921509 3.2167511 -0.02911377 C4.363629 -0.03336365 5.5105069 -0.03761353 6.69213867 -0.04199219 C8.46230598 -0.0505423 8.46230598 -0.0505423 10.26823425 -0.05926514 C12.76735537 -0.06871755 15.26648897 -0.07525007 17.765625 -0.07910156 C21.58445044 -0.08880201 25.40273658 -0.11982195 29.22143555 -0.15136719 C31.64916673 -0.15789779 34.07690175 -0.16314804 36.50463867 -0.16699219 C37.64544388 -0.17933899 38.78624908 -0.19168579 39.96162415 -0.20440674 C50.25084927 -0.1755744 50.25084927 -0.1755744 54.79760742 3.16113281 C56.818515 6.32646826 57.05424394 8.85259808 57.07226562 12.56884766 C57.08179764 13.65032074 57.09132965 14.73179382 57.10115051 15.84603882 C57.10023911 17.00962921 57.0993277 18.1732196 57.09838867 19.37207031 C57.1026738 20.57296295 57.10695892 21.77385559 57.1113739 23.01113892 C57.11711682 25.55136484 57.11761776 28.09160722 57.11328125 30.63183594 C57.11012518 34.51428379 57.13356874 38.39596689 57.15893555 42.27832031 C57.16120894 44.74706935 57.16191185 47.21582044 57.16088867 49.68457031 C57.17009842 50.84411224 57.17930817 52.00365417 57.188797 53.19833374 C57.12725744 63.94541935 57.12725744 63.94541935 53.79760742 68.16113281 C48.44463399 71.12795662 41.97482073 70.44888725 36.01245117 70.42675781 C34.87860489 70.42867126 33.74475861 70.43058472 32.57655334 70.43255615 C30.18531064 70.4339142 27.79406047 70.43024438 25.40283203 70.421875 C21.74454193 70.41116044 18.08674178 70.4217886 14.4284668 70.43457031 C12.10229384 70.43324885 9.77612119 70.43068672 7.44995117 70.42675781 C6.3571434 70.43080627 5.26433563 70.43485474 4.13841248 70.43902588 C3.11707718 70.43272156 2.09574188 70.42641724 1.04345703 70.41992188 C0.1488829 70.41833069 -0.74569122 70.4167395 -1.66737366 70.4151001 C-5.29332663 70.05183913 -8.01779616 68.9985494 -10.98963928 66.89768982 C-12.75000658 64.3769973 -12.59067849 62.43203024 -12.60644531 59.3762207 C-12.61912949 58.18811295 -12.63181366 57.00000519 -12.6448822 55.77589417 C-12.64194656 54.49149948 -12.63901093 53.2071048 -12.63598633 51.88378906 C-12.64122818 50.5657579 -12.64647003 49.24772675 -12.65187073 47.88975525 C-12.66080529 45.09966466 -12.65837543 42.30986024 -12.6484375 39.51977539 C-12.63695158 35.94724646 -12.6571499 32.37570652 -12.68635464 28.80330753 C-12.70913325 25.39258228 -12.70224944 21.9820886 -12.69848633 18.57128906 C-12.70972031 17.28891861 -12.72095428 16.00654816 -12.73252869 14.68531799 C-12.72314774 13.49405807 -12.71376678 12.30279816 -12.70410156 11.07543945 C-12.70393539 10.02747696 -12.70376923 8.97951447 -12.70359802 7.89979553 C-12.07309613 4.45463735 -10.92518935 3.2988862 -8.20239258 1.16113281 C-5.19204393 0.15768326 -3.14784034 0.02299885 0 0 Z M5.79760742 18.16113281 C5.79760742 29.38113281 5.79760742 40.60113281 5.79760742 52.16113281 C16.68760742 52.16113281 27.57760742 52.16113281 38.79760742 52.16113281 C38.79760742 40.94113281 38.79760742 29.72113281 38.79760742 18.16113281 C27.90760742 18.16113281 17.01760742 18.16113281 5.79760742 18.16113281 Z " fill="#000000" transform="translate(157.202392578125,75.8388671875)"/>
<path d="M0 0 C0.99837891 -0.020625 1.99675781 -0.04125 3.02539062 -0.0625 C12.43743219 -0.11266411 12.43743219 -0.11266411 16.1875 3.25 C17.7277467 6.86623139 18.44021313 9.13806222 17.5625 13 C15.995203 15.56466782 14.74221888 16.67718465 12.1875 18.25 C8.23216983 18.8943004 4.25232233 18.75947856 0.25 18.75 C-0.83474609 18.77835937 -1.91949219 18.80671875 -3.03710938 18.8359375 C-10.95682868 18.85540823 -10.95682868 18.85540823 -15.03125 15.97265625 C-17.73390059 11.84163112 -17.50700627 10.11154386 -16.8125 5.25 C-12.15294049 -0.80742736 -7.07661876 0.03612824 0 0 Z " fill="#000000" transform="translate(161.8125,263.75)"/>
<path d="M0 0 C0.89009766 -0.020625 1.78019531 -0.04125 2.69726562 -0.0625 C7.94646911 -0.09362945 11.67369318 0.25277477 16.1875 3.25 C18.00828724 6.17909251 18.20307453 7.86842399 18.0625 11.3125 C17.02959772 14.7801005 15.98882738 15.99508456 13.1875 18.25 C9.08111524 19.0705259 4.92923603 18.85279893 0.75 18.8125 C-0.38244141 18.83634766 -1.51488281 18.86019531 -2.68164062 18.88476562 C-10.92894759 18.87018582 -10.92894759 18.87018582 -15.0625 15.96875 C-17.72374777 11.83431149 -17.50478742 10.09601196 -16.8125 5.25 C-12.4052068 -0.67704948 -6.7374754 0.03852738 0 0 Z " fill="#000000" transform="translate(161.8125,314.75)"/>
<path d="M0 0 C1.08023438 -0.01095703 2.16046875 -0.02191406 3.2734375 -0.03320312 C11.10115581 0.03927575 11.10115581 0.03927575 15.1875 2.41796875 C17.56301116 5.22864898 18 6.88603852 18 10.5625 C16.05569444 15.88375733 16.05569444 15.88375733 13.203125 17.71777344 C10.6451123 18.69857175 8.67404158 18.82107206 5.9375 18.828125 C4.49503906 18.83199219 4.49503906 18.83199219 3.0234375 18.8359375 C2.02570313 18.82820313 1.02796875 18.82046875 0 18.8125 C-1.49660156 18.82410156 -1.49660156 18.82410156 -3.0234375 18.8359375 C-3.98507813 18.83335937 -4.94671875 18.83078125 -5.9375 18.828125 C-6.81277344 18.82586914 -7.68804687 18.82361328 -8.58984375 18.82128906 C-11.21646034 18.5392577 -12.78838219 17.99431952 -15 16.5625 C-17.11212504 13.39431244 -17.33156464 11.43030748 -17.55859375 7.6953125 C-15.27361241 -1.02916171 -7.32450296 -0.16169845 0 0 Z " fill="#000000" transform="translate(162,212.4375)"/>
<path d="M0 0 C1.70446289 -0.01643555 1.70446289 -0.01643555 3.44335938 -0.03320312 C11.79169034 0.04067591 11.79169034 0.04067591 14.73413086 2.41821289 C16.96348411 5.22463536 17.36594894 6.98494678 17.4375 10.5625 C16.29073174 13.87538607 15.53298014 15.92883992 12.4453125 17.71484375 C8.09965603 18.93952875 3.93091349 18.89128048 -0.5625 18.875 C-1.89667969 18.89916992 -1.89667969 18.89916992 -3.2578125 18.92382812 C-8.19052254 18.92750925 -11.56280407 18.77319341 -15.5625 15.5625 C-18.09043912 13.03456088 -17.91363422 11.19035835 -18.12109375 7.73046875 C-15.81590993 -1.21622368 -7.46886602 -0.15728403 0 0 Z " fill="#000000" transform="translate(162.5625,161.4375)"/>
<path d="M0 0 C0.79857422 -0.01224609 1.59714844 -0.02449219 2.41992188 -0.03710938 C7.56419321 -0.04989547 11.50639623 0.3617116 15.8125 3.4375 C17.66056681 6.02479353 17.93612945 8.02823634 18.0625 11.1875 C16.6885627 14.06622577 15.31260563 15.93739437 13.0625 18.1875 C8.79000137 18.67421964 4.48454427 18.55790423 0.1875 18.5625 C-1.01003906 18.58699219 -2.20757812 18.61148437 -3.44140625 18.63671875 C-4.59253906 18.64058594 -5.74367187 18.64445312 -6.9296875 18.6484375 C-8.51305908 18.66076416 -8.51305908 18.66076416 -10.12841797 18.67333984 C-13.61603312 18.0701455 -14.77874634 16.93506246 -16.9375 14.1875 C-17.67127162 11.12292441 -17.50584762 8.27931106 -16.9375 5.1875 C-12.76610377 -0.77163747 -6.6049722 0.0053052 0 0 Z " fill="#000000" transform="translate(161.9375,365.8125)"/>
</svg>
